# xmcd
#
# Track frame offsets:
#	150
#	15612
#	32910
#	47749
#	66131
#	93184
#	102706
#	112675
#	142765
#	158576
#	173210
#	188243
#	205580
#	219565
#	234434
#	256113
#	301059
#
# Disc length: 4233 seconds
#
# Revision: 1
# Processed by: cddbd v1.5.1PL0 Copyright (c) Steve Scherf et al.
# Submitted via: CDex 1.50Beta5
#
DISCID=d4108711
DTITLE=ブルーハーツ - BLUE HEARTS SUPER BEST,THE
DYEAR=1995
DGENRE=Rock
TTITLE0=リンダ・リンダ
TTITLE1=人にやさしく
TTITLE2=シャララ
TTITLE3=ロクデナシ
TTITLE4=ラブレター
TTITLE5=平成のブルース
TTITLE6=キスしてほしい
TTITLE7=ハンマー
TTITLE8=チェインギャング
TTITLE9=TRAIN-TRAIN
TTITLE10=ラインを越えて
TTITLE11=僕はここに立っているよ
TTITLE12=英雄にあこがれて
TTITLE13=青空
TTITLE14=終わらない歌
TTITLE15=ブルーハーツより愛をこめて
TTITLE16=1985
EXTD=
EXTT0=
EXTT1=
EXTT2=
EXTT3=
EXTT4=
EXTT5=
EXTT6=
EXTT7=
EXTT8=
EXTT9=
EXTT10=
EXTT11=
EXTT12=
EXTT13=
EXTT14=
EXTT15=
EXTT16=
PLAYORDER=
